<?xml version="1.0" standalone="no"?>
<!DOCTYPE svg PUBLIC "-//W3C//DTD SVG 20010904//EN"
 "http://www.w3.org/TR/2001/REC-SVG-20010904/DTD/svg10.dtd">
<svg version="1.0" xmlns="http://www.w3.org/2000/svg"
 width="720.000000pt" height="720.000000pt" viewBox="0 0 720.000000 720.000000"
 preserveAspectRatio="xMidYMid meet">
<metadata>
Created by potrace 1.11, written by Peter Selinger 2001-2013
</metadata>
<g transform="translate(0.000000,720.000000) scale(0.100000,-0.100000)"
fill="#000000" stroke="none">
<path d="M1880 6809 c-143 -15 -238 -43 -361 -105 -263 -132 -473 -399 -539
-683 -63 -275 -2 -610 147 -808 13 -18 20 -33 16 -34 -4 -1 -129 -2 -278 -4
-312 -3 -342 -6 -444 -45 -204 -79 -360 -273 -398 -493 -3 -18 -6 -736 -7
-1597 -3 -1701 -6 -1594 52 -1646 26 -23 159 -94 175 -94 20 0 135 -88 200
-153 71 -71 136 -161 235 -327 88 -148 171 -248 275 -333 253 -206 613 -198
865 18 109 93 199 215 357 483 141 237 225 315 331 305 84 -7 137 -46 221
-163 35 -50 173 -276 173 -285 0 -9 103 -158 144 -208 171 -211 354 -303 590
-299 208 4 391 103 548 294 33 40 178 253 178 261 0 4 77 132 124 207 86 136
175 201 262 193 85 -7 139 -48 220 -163 45 -64 38 -53 145 -234 124 -209 208
-316 322 -409 200 -162 472 -196 707 -86 168 78 285 206 475 519 125 206 221
297 501 478 61 40 79 69 77 122 -2 25 -4 725 -6 1555 -2 831 -7 1530 -11 1555
-26 151 -110 305 -212 385 -20 17 -43 36 -50 42 -18 18 -143 79 -189 92 -74
22 -129 25 -447 25 l-317 1 16 25 c86 131 148 287 170 430 9 56 9 229 1 290
-64 465 -447 838 -912 887 -270 29 -513 -39 -733 -204 -124 -93 -240 -236
-307 -377 -34 -72 -73 -192 -81 -246 -3 -25 -8 -58 -12 -75 -3 -16 -5 -75 -5
-130 1 -183 57 -380 150 -525 22 -35 39 -67 36 -69 -5 -6 -1445 -9 -1456 -4
-4 2 10 32 31 67 36 58 97 186 107 224 74 277 58 507 -52 749 -178 392 -604
637 -1034 592z m248 -495 c153 -44 271 -144 341 -289 49 -99 61 -157 56 -265
-7 -191 -101 -347 -270 -449 -100 -60 -265 -85 -392 -59 -88 18 -193 77 -263
148 -109 109 -160 224 -166 371 -11 276 202 529 471 562 58 7 168 -2 223 -19z
m3150 1 c171 -50 305 -176 372 -350 26 -69 36 -218 19 -300 -31 -147 -155
-304 -292 -369 -278 -133 -605 -18 -737 259 -68 142 -75 296 -20 435 69 174
235 311 413 339 73 11 178 5 245 -14z m1001 -1609 c-2 -2 -80 -52 -174 -111
-93 -60 -199 -127 -235 -150 -36 -23 -328 -210 -650 -415 -322 -205 -607 -387
-635 -405 -463 -300 -821 -523 -862 -537 -98 -34 -198 -28 -298 17 -27 13
-119 67 -203 121 -83 55 -232 151 -330 213 -97 63 -226 147 -287 186 -60 39
-146 94 -190 123 -44 28 -233 150 -420 271 -187 120 -503 324 -702 452 -199
128 -360 235 -358 238 2 4 1206 5 2676 3 1470 -1 2670 -4 2668 -6z m-5577
-422 c101 -64 212 -136 248 -159 36 -23 173 -111 305 -195 132 -84 283 -181
335 -215 148 -95 385 -247 430 -275 22 -14 85 -54 140 -90 56 -36 111 -70 123
-77 12 -7 22 -17 22 -23 0 -6 -40 -33 -90 -59 -49 -26 -126 -67 -170 -90 -44
-24 -118 -63 -165 -88 -47 -25 -107 -58 -135 -73 -27 -15 -99 -54 -160 -86
-60 -32 -137 -73 -170 -91 -33 -17 -96 -51 -140 -74 -44 -23 -98 -52 -120 -64
-22 -12 -74 -40 -115 -62 -217 -116 -286 -153 -407 -219 -103 -56 -133 -68
-134 -55 -1 9 -2 490 -3 1069 -1 824 2 1051 11 1048 7 -3 95 -58 195 -122z
m6003 -919 c0 -564 -2 -1025 -4 -1025 -5 0 -166 86 -386 205 -33 18 -96 52
-140 75 -44 24 -107 57 -140 75 -33 18 -226 122 -430 230 -203 109 -401 216
-440 237 -38 21 -103 55 -142 75 -40 21 -73 40 -73 43 0 3 87 60 193 128 105
67 267 171 359 230 1076 690 1191 763 1197 757 3 -3 5 -467 6 -1030z m-2229
-404 c5 -5 79 -46 164 -91 85 -46 178 -95 205 -110 28 -15 88 -48 135 -72 47
-25 247 -132 445 -238 198 -106 394 -211 435 -233 41 -22 98 -52 125 -67 28
-15 95 -51 150 -80 55 -29 152 -81 215 -115 63 -34 160 -86 215 -115 55 -29
111 -61 125 -70 14 -9 34 -20 45 -24 16 -6 10 -11 -35 -28 -173 -65 -313 -214
-505 -538 -137 -231 -200 -309 -277 -345 -83 -39 -168 -15 -244 67 -52 56 -99
127 -212 318 -130 218 -189 295 -307 395 -57 49 -158 106 -228 129 -119 40
-296 40 -414 0 -178 -60 -328 -194 -465 -413 -26 -42 -51 -81 -55 -86 -4 -6
-17 -26 -27 -45 -59 -106 -147 -239 -190 -287 -60 -66 -114 -95 -176 -95 -107
0 -192 83 -330 322 -51 88 -171 283 -179 290 -3 3 -24 27 -46 54 -150 188
-345 288 -560 290 -142 0 -250 -32 -372 -111 -135 -88 -242 -221 -423 -523
-150 -252 -222 -322 -330 -322 -115 0 -184 72 -373 394 -131 221 -221 333
-342 425 -33 25 -79 54 -102 65 -24 10 -43 22 -43 26 1 4 134 78 298 165 163
86 331 176 372 198 41 22 116 62 165 88 50 27 149 79 220 118 72 39 164 88
205 110 257 138 466 250 545 293 28 15 91 49 140 75 50 26 139 74 199 107 60
32 115 57 122 54 14 -5 44 -25 254 -162 58 -37 139 -85 180 -105 190 -93 427
-109 639 -42 107 34 164 64 408 218 109 69 203 125 209 125 5 0 14 -4 20 -9z"/>
<path d="M1900 6070 c-82 -24 -150 -81 -191 -160 -18 -36 -23 -61 -23 -125 0
-70 3 -87 29 -134 30 -55 87 -110 140 -137 16 -9 62 -18 100 -21 90 -7 163 19
224 79 66 64 86 116 86 218 0 68 -5 93 -22 125 -52 99 -145 158 -253 161 -36
1 -76 -2 -90 -6z m114 -256 c33 -32 5 -94 -43 -94 -20 0 -51 30 -51 49 0 50
61 79 94 45z"/>
<path d="M5027 6065 c-120 -42 -195 -142 -201 -270 -6 -120 62 -227 177 -281
74 -34 181 -30 255 11 57 31 114 93 139 152 22 52 21 168 -2 219 -30 64 -84
123 -138 151 -61 31 -169 40 -230 18z m133 -250 c18 -22 15 -66 -6 -82 -38
-28 -86 -5 -86 42 0 47 63 75 92 40z"/>
</g>
</svg>
