<?xml version="1.0" encoding="UTF-8" standalone="no"?>
<svg width="90px" height="82px" viewBox="0 0 90 82" version="1.1" xmlns="http://www.w3.org/2000/svg" xmlns:xlink="http://www.w3.org/1999/xlink">
    <!-- Generator: Sketch 48.2 (47327) - http://www.bohemiancoding.com/sketch -->
    <title>Group 2</title>
    <desc>Created with Sketch.</desc>
    <defs></defs>
    <g id="Page-1" stroke="none" stroke-width="1" fill="none" fill-rule="evenodd">
        <g id="noun_88121_cc-copy" transform="translate(-6.000000, 0.000000)" fill="#0E0E0E" fill-rule="nonzero">
            <g id="Group" transform="translate(6.000000, 0.000000)">
                <g id="Group-2">
                    <path d="M24.7,17.4 C26.7,17.4 28.4,15.8 28.4,13.7 C28.4,11.6 26.8,10 24.7,10 C22.6,10 21,11.7 21,13.7 C21,15.7 22.7,17.4 24.7,17.4 Z M24.7,13.1 C25.1,13.1 25.4,13.4 25.4,13.8 C25.4,14.2 25.1,14.5 24.7,14.5 C24.3,14.5 24,14.2 24,13.8 C24,13.4 24.3,13.1 24.7,13.1 Z" id="Shape"></path>
                    <path d="M64,17.4 C66,17.4 67.7,15.8 67.7,13.7 C67.7,11.6 66.1,10 64,10 C61.9,10 60.3,11.6 60.3,13.7 C60.3,15.8 62,17.4 64,17.4 Z M64,13.1 C64.4,13.1 64.7,13.4 64.7,13.8 C64.7,14.2 64.4,14.5 64,14.5 C63.6,14.5 63.3,14.2 63.3,13.8 C63.3,13.4 63.7,13.1 64,13.1 Z" id="Shape"></path>
                    <path d="M89.8,65.6 L89.8,60 L89.8,29.3 C89.8,24.9 86.2,21.3 81.8,21.3 L74.5,21.3 C76.4,18.7 77.4,15.3 76.8,11.7 C75.9,6 71.2,1.5 65.5,0.9 C57.8,1.11022302e-16 51.2,6.1 51.2,13.7 C51.2,16.5 52.1,19.2 53.7,21.3 L35.2,21.3 C37.1,18.7 38.1,15.3 37.5,11.7 C36.6,6 31.9,1.5 26.2,0.9 C18.5,1.11022302e-16 11.9,6.1 11.9,13.7 C11.9,16.5 12.8,19.2 14.4,21.3 L8.4,21.3 C6.6,21.3 4.8,21.8 3.4,22.9 C1.3,24.5 0.2,26.8 0.2,29.3 L0.2,60.9 L0.2,67.7 C0.6,69 3.2,69.8 3.2,69.8 C3.2,69.8 5.8,71.2 7.6,74.3 C9.4,77.5 12,81.8 17.2,81.8 C22.4,81.8 24.9,77.5 26.8,74.3 C28.6,71.2 29.6,69.8 31.2,69.8 C32.8,69.8 33.8,71.2 35.6,74.3 C37.4,77.5 40,81.8 45.2,81.8 C50.4,81.8 52.9,77.5 54.8,74.3 C56.6,71.2 57.6,69.8 59.2,69.8 C60.8,69.8 61.8,71.2 63.6,74.3 C65.4,77.5 68,81.8 73.2,81.8 C78.4,81.8 80.9,77.5 82.8,74.3 C84.5,71.3 87.1,69.8 87.1,69.8 L89.4,68.2 C89.8,67.9 90,67.5 90,67 L89.8,65.6 Z M62.8,6.9 C67.6,6 71.8,10.2 70.9,15 C70.4,17.7 68.2,19.9 65.5,20.4 C60.7,21.3 56.5,17.1 57.4,12.3 C57.9,9.6 60.1,7.4 62.8,6.9 Z M23.4,6.9 C28.2,6 32.4,10.2 31.5,15 C31,17.7 28.8,19.9 26.1,20.4 C21.3,21.3 17.1,17.1 18,12.3 C18.6,9.6 20.7,7.4 23.4,6.9 Z M83.8,56.8 L61.8,45 L83.8,30.9 L83.8,56.8 Z M78.6,27.1 L47.6,46.9 C46,48 43.8,47.9 42.2,46.9 L11.5,27.1 L78.6,27.1 Z M6.2,30.8 L29,45.4 L6.2,57.6 L6.2,30.8 Z M77.4,71.3 C75.6,74.4 74.6,75.8 73,75.8 C71.4,75.8 70.4,74.4 68.6,71.3 C66.8,68.1 64.2,63.8 59,63.8 C53.8,63.8 51.3,68.1 49.4,71.3 C47.6,74.4 46.6,75.8 45,75.8 C43.4,75.8 42.4,74.4 40.6,71.3 C38.8,68.1 36.2,63.8 31,63.8 C25.8,63.8 23.3,68.1 21.4,71.3 C19.6,74.4 18.6,75.8 17,75.8 C15.4,75.8 14.4,74.4 12.6,71.3 C11.2,68.8 9.3,65.7 6.1,64.4 L7.1,63.9 L34.5,49.2 L38.8,52 C40.6,53.2 42.7,53.7 44.7,53.7 C46.8,53.7 48.8,53.1 50.6,52 L55.7,48.8 C55.8,48.9 55.9,48.9 55.9,49 L83,63.5 L84.4,64.3 C81,65.2 79,68.6 77.4,71.3 Z" id="Shape"></path>
                </g>
            </g>
        </g>
    </g>
</svg>